<mxfile host="app.diagrams.net" modified="2023-06-29T10:30:46.553Z" agent="Mozilla/5.0 (Windows NT 10.0; Win64; x64) AppleWebKit/537.36 (KHTML, like Gecko) Chrome/114.0.0.0 Safari/537.36" etag="UrU6HsmDUOXRZ62cMeFb" version="21.5.0" type="device">
  <diagram name="Страница 1" id="4vieOyv3WRuFmFv7VNGY">
    <mxGraphModel dx="724" dy="405" grid="1" gridSize="10" guides="1" tooltips="1" connect="1" arrows="1" fold="1" page="1" pageScale="1" pageWidth="827" pageHeight="1169" math="0" shadow="0">
      <root>
        <mxCell id="0" />
        <mxCell id="1" parent="0" />
        <mxCell id="tE1aHcZddgMQ1IxQSUrm-1" value="Клієнт 1" style="shape=umlLifeline;perimeter=lifelinePerimeter;whiteSpace=wrap;html=1;container=1;dropTarget=0;collapsible=0;recursiveResize=0;outlineConnect=0;portConstraint=eastwest;newEdgeStyle={&quot;edgeStyle&quot;:&quot;elbowEdgeStyle&quot;,&quot;elbow&quot;:&quot;vertical&quot;,&quot;curved&quot;:0,&quot;rounded&quot;:0};" vertex="1" parent="1">
          <mxGeometry x="90" y="80" width="100" height="300" as="geometry" />
        </mxCell>
        <mxCell id="tE1aHcZddgMQ1IxQSUrm-4" value="" style="html=1;points=[];perimeter=orthogonalPerimeter;outlineConnect=0;targetShapes=umlLifeline;portConstraint=eastwest;newEdgeStyle={&quot;edgeStyle&quot;:&quot;elbowEdgeStyle&quot;,&quot;elbow&quot;:&quot;vertical&quot;,&quot;curved&quot;:0,&quot;rounded&quot;:0};" vertex="1" parent="tE1aHcZddgMQ1IxQSUrm-1">
          <mxGeometry x="45" y="50" width="10" height="80" as="geometry" />
        </mxCell>
        <mxCell id="tE1aHcZddgMQ1IxQSUrm-10" style="edgeStyle=elbowEdgeStyle;rounded=0;orthogonalLoop=1;jettySize=auto;html=1;elbow=vertical;curved=0;" edge="1" parent="tE1aHcZddgMQ1IxQSUrm-1" source="tE1aHcZddgMQ1IxQSUrm-4" target="tE1aHcZddgMQ1IxQSUrm-4">
          <mxGeometry relative="1" as="geometry" />
        </mxCell>
        <mxCell id="tE1aHcZddgMQ1IxQSUrm-11" value="2. Екран пошуку опоненту" style="edgeLabel;html=1;align=center;verticalAlign=middle;resizable=0;points=[];fontSize=9;" vertex="1" connectable="0" parent="tE1aHcZddgMQ1IxQSUrm-10">
          <mxGeometry x="-0.2733" y="2" relative="1" as="geometry">
            <mxPoint x="43" y="8" as="offset" />
          </mxGeometry>
        </mxCell>
        <mxCell id="tE1aHcZddgMQ1IxQSUrm-22" value="" style="html=1;points=[];perimeter=orthogonalPerimeter;outlineConnect=0;targetShapes=umlLifeline;portConstraint=eastwest;newEdgeStyle={&quot;edgeStyle&quot;:&quot;elbowEdgeStyle&quot;,&quot;elbow&quot;:&quot;vertical&quot;,&quot;curved&quot;:0,&quot;rounded&quot;:0};" vertex="1" parent="tE1aHcZddgMQ1IxQSUrm-1">
          <mxGeometry x="45" y="170" width="10" height="100" as="geometry" />
        </mxCell>
        <mxCell id="tE1aHcZddgMQ1IxQSUrm-38" value="" style="endArrow=classic;html=1;rounded=0;" edge="1" parent="tE1aHcZddgMQ1IxQSUrm-1" source="tE1aHcZddgMQ1IxQSUrm-22" target="tE1aHcZddgMQ1IxQSUrm-22">
          <mxGeometry width="50" height="50" relative="1" as="geometry">
            <mxPoint x="40" y="260" as="sourcePoint" />
            <mxPoint x="40" y="240" as="targetPoint" />
            <Array as="points">
              <mxPoint x="20" y="260" />
              <mxPoint x="20" y="240" />
            </Array>
          </mxGeometry>
        </mxCell>
        <mxCell id="tE1aHcZddgMQ1IxQSUrm-39" value="Відновлення поля опоненту" style="edgeLabel;html=1;align=center;verticalAlign=middle;resizable=0;points=[];fontSize=7;" vertex="1" connectable="0" parent="tE1aHcZddgMQ1IxQSUrm-38">
          <mxGeometry x="-0.0825" relative="1" as="geometry">
            <mxPoint x="-30" y="-3" as="offset" />
          </mxGeometry>
        </mxCell>
        <mxCell id="tE1aHcZddgMQ1IxQSUrm-2" value="Клієнт 2" style="shape=umlLifeline;perimeter=lifelinePerimeter;whiteSpace=wrap;html=1;container=1;dropTarget=0;collapsible=0;recursiveResize=0;outlineConnect=0;portConstraint=eastwest;newEdgeStyle={&quot;edgeStyle&quot;:&quot;elbowEdgeStyle&quot;,&quot;elbow&quot;:&quot;vertical&quot;,&quot;curved&quot;:0,&quot;rounded&quot;:0};" vertex="1" parent="1">
          <mxGeometry x="510" y="80" width="100" height="300" as="geometry" />
        </mxCell>
        <mxCell id="tE1aHcZddgMQ1IxQSUrm-5" value="" style="html=1;points=[];perimeter=orthogonalPerimeter;outlineConnect=0;targetShapes=umlLifeline;portConstraint=eastwest;newEdgeStyle={&quot;edgeStyle&quot;:&quot;elbowEdgeStyle&quot;,&quot;elbow&quot;:&quot;vertical&quot;,&quot;curved&quot;:0,&quot;rounded&quot;:0};" vertex="1" parent="tE1aHcZddgMQ1IxQSUrm-2">
          <mxGeometry x="45" y="130" width="10" height="140" as="geometry" />
        </mxCell>
        <mxCell id="tE1aHcZddgMQ1IxQSUrm-41" value="" style="endArrow=classic;html=1;rounded=0;" edge="1" parent="tE1aHcZddgMQ1IxQSUrm-2" source="tE1aHcZddgMQ1IxQSUrm-5" target="tE1aHcZddgMQ1IxQSUrm-5">
          <mxGeometry width="50" height="50" relative="1" as="geometry">
            <mxPoint x="60" y="260" as="sourcePoint" />
            <mxPoint x="60" y="240" as="targetPoint" />
            <Array as="points">
              <mxPoint x="85" y="260" />
              <mxPoint x="85" y="240" />
            </Array>
          </mxGeometry>
        </mxCell>
        <mxCell id="tE1aHcZddgMQ1IxQSUrm-42" value="Відновлення свого полю" style="edgeLabel;html=1;align=center;verticalAlign=middle;resizable=0;points=[];fontSize=7;" vertex="1" connectable="0" parent="tE1aHcZddgMQ1IxQSUrm-41">
          <mxGeometry x="-0.0825" relative="1" as="geometry">
            <mxPoint x="25" y="-3" as="offset" />
          </mxGeometry>
        </mxCell>
        <mxCell id="tE1aHcZddgMQ1IxQSUrm-3" value="Сервер" style="shape=umlLifeline;perimeter=lifelinePerimeter;whiteSpace=wrap;html=1;container=1;dropTarget=0;collapsible=0;recursiveResize=0;outlineConnect=0;portConstraint=eastwest;newEdgeStyle={&quot;edgeStyle&quot;:&quot;elbowEdgeStyle&quot;,&quot;elbow&quot;:&quot;vertical&quot;,&quot;curved&quot;:0,&quot;rounded&quot;:0};" vertex="1" parent="1">
          <mxGeometry x="300" y="80" width="100" height="310" as="geometry" />
        </mxCell>
        <mxCell id="tE1aHcZddgMQ1IxQSUrm-6" value="" style="html=1;points=[];perimeter=orthogonalPerimeter;outlineConnect=0;targetShapes=umlLifeline;portConstraint=eastwest;newEdgeStyle={&quot;edgeStyle&quot;:&quot;elbowEdgeStyle&quot;,&quot;elbow&quot;:&quot;vertical&quot;,&quot;curved&quot;:0,&quot;rounded&quot;:0};" vertex="1" parent="tE1aHcZddgMQ1IxQSUrm-3">
          <mxGeometry x="45" y="50" width="10" height="130" as="geometry" />
        </mxCell>
        <mxCell id="tE1aHcZddgMQ1IxQSUrm-13" style="edgeStyle=elbowEdgeStyle;rounded=0;orthogonalLoop=1;jettySize=auto;html=1;elbow=vertical;curved=0;" edge="1" parent="tE1aHcZddgMQ1IxQSUrm-3" source="tE1aHcZddgMQ1IxQSUrm-6" target="tE1aHcZddgMQ1IxQSUrm-6">
          <mxGeometry relative="1" as="geometry">
            <mxPoint x="80" y="80" as="sourcePoint" />
            <mxPoint x="80" y="100" as="targetPoint" />
          </mxGeometry>
        </mxCell>
        <mxCell id="tE1aHcZddgMQ1IxQSUrm-14" value="3. Очікує опонента з такими ж налаштуваннями" style="edgeLabel;html=1;align=center;verticalAlign=middle;resizable=0;points=[];fontSize=7;" vertex="1" connectable="0" parent="tE1aHcZddgMQ1IxQSUrm-13">
          <mxGeometry x="-0.2581" y="-1" relative="1" as="geometry">
            <mxPoint x="66" y="8" as="offset" />
          </mxGeometry>
        </mxCell>
        <mxCell id="tE1aHcZddgMQ1IxQSUrm-26" value="" style="html=1;points=[];perimeter=orthogonalPerimeter;outlineConnect=0;targetShapes=umlLifeline;portConstraint=eastwest;newEdgeStyle={&quot;edgeStyle&quot;:&quot;elbowEdgeStyle&quot;,&quot;elbow&quot;:&quot;vertical&quot;,&quot;curved&quot;:0,&quot;rounded&quot;:0};" vertex="1" parent="tE1aHcZddgMQ1IxQSUrm-3">
          <mxGeometry x="45" y="180" width="10" height="70" as="geometry" />
        </mxCell>
        <mxCell id="tE1aHcZddgMQ1IxQSUrm-29" style="edgeStyle=elbowEdgeStyle;rounded=0;orthogonalLoop=1;jettySize=auto;html=1;elbow=vertical;curved=0;" edge="1" parent="tE1aHcZddgMQ1IxQSUrm-3" source="tE1aHcZddgMQ1IxQSUrm-26" target="tE1aHcZddgMQ1IxQSUrm-26">
          <mxGeometry relative="1" as="geometry" />
        </mxCell>
        <mxCell id="tE1aHcZddgMQ1IxQSUrm-30" value="8. Перевірка клітки на присутність корабля" style="edgeLabel;html=1;align=center;verticalAlign=middle;resizable=0;points=[];fontSize=7;" vertex="1" connectable="0" parent="tE1aHcZddgMQ1IxQSUrm-29">
          <mxGeometry x="0.1022" relative="1" as="geometry">
            <mxPoint x="55" y="-3" as="offset" />
          </mxGeometry>
        </mxCell>
        <mxCell id="tE1aHcZddgMQ1IxQSUrm-8" style="edgeStyle=elbowEdgeStyle;rounded=0;orthogonalLoop=1;jettySize=auto;html=1;elbow=vertical;curved=0;" edge="1" parent="1" source="tE1aHcZddgMQ1IxQSUrm-4">
          <mxGeometry relative="1" as="geometry">
            <mxPoint x="195" y="140.00285714285718" as="sourcePoint" />
            <mxPoint x="345" y="140.00285714285718" as="targetPoint" />
          </mxGeometry>
        </mxCell>
        <mxCell id="tE1aHcZddgMQ1IxQSUrm-9" value="1. Обирає налаштування, починає пошук" style="edgeLabel;html=1;align=center;verticalAlign=middle;resizable=0;points=[];fontSize=9;" vertex="1" connectable="0" parent="tE1aHcZddgMQ1IxQSUrm-8">
          <mxGeometry x="-0.2365" relative="1" as="geometry">
            <mxPoint x="18" as="offset" />
          </mxGeometry>
        </mxCell>
        <mxCell id="tE1aHcZddgMQ1IxQSUrm-15" style="edgeStyle=elbowEdgeStyle;rounded=0;orthogonalLoop=1;jettySize=auto;html=1;elbow=vertical;curved=0;" edge="1" parent="1" source="tE1aHcZddgMQ1IxQSUrm-5" target="tE1aHcZddgMQ1IxQSUrm-6">
          <mxGeometry relative="1" as="geometry">
            <Array as="points">
              <mxPoint x="540" y="220" />
              <mxPoint x="540" y="230" />
            </Array>
          </mxGeometry>
        </mxCell>
        <mxCell id="tE1aHcZddgMQ1IxQSUrm-16" value="4. Починає пошук з такими ж налаштуваннями" style="edgeLabel;html=1;align=center;verticalAlign=middle;resizable=0;points=[];fontSize=7;" vertex="1" connectable="0" parent="tE1aHcZddgMQ1IxQSUrm-15">
          <mxGeometry x="0.0889" relative="1" as="geometry">
            <mxPoint x="14" as="offset" />
          </mxGeometry>
        </mxCell>
        <mxCell id="tE1aHcZddgMQ1IxQSUrm-20" style="edgeStyle=elbowEdgeStyle;rounded=0;orthogonalLoop=1;jettySize=auto;html=1;elbow=vertical;curved=0;" edge="1" parent="1">
          <mxGeometry relative="1" as="geometry">
            <mxPoint x="355" y="259.9980952380952" as="sourcePoint" />
            <mxPoint x="555" y="259.9980952380952" as="targetPoint" />
          </mxGeometry>
        </mxCell>
        <mxCell id="tE1aHcZddgMQ1IxQSUrm-23" style="edgeStyle=elbowEdgeStyle;rounded=0;orthogonalLoop=1;jettySize=auto;html=1;elbow=vertical;curved=0;" edge="1" parent="1" source="tE1aHcZddgMQ1IxQSUrm-6" target="tE1aHcZddgMQ1IxQSUrm-22">
          <mxGeometry relative="1" as="geometry" />
        </mxCell>
        <mxCell id="tE1aHcZddgMQ1IxQSUrm-25" value="6. Створює підключення між обома гравцями за допомогою веб-сокету&lt;br style=&quot;font-size: 7px;&quot;&gt;Випадково визначає хід" style="edgeLabel;html=1;align=center;verticalAlign=middle;resizable=0;points=[];fontSize=7;" vertex="1" connectable="0" parent="tE1aHcZddgMQ1IxQSUrm-23">
          <mxGeometry x="-0.8852" y="1" relative="1" as="geometry">
            <mxPoint x="16" as="offset" />
          </mxGeometry>
        </mxCell>
        <mxCell id="tE1aHcZddgMQ1IxQSUrm-27" style="edgeStyle=elbowEdgeStyle;rounded=0;orthogonalLoop=1;jettySize=auto;html=1;elbow=vertical;curved=0;" edge="1" parent="1">
          <mxGeometry relative="1" as="geometry">
            <mxPoint x="145" y="279.9980952380952" as="sourcePoint" />
            <mxPoint x="345" y="279.9980952380952" as="targetPoint" />
          </mxGeometry>
        </mxCell>
        <mxCell id="tE1aHcZddgMQ1IxQSUrm-28" value="7. Обирає клітку Cell_ij" style="edgeLabel;html=1;align=center;verticalAlign=middle;resizable=0;points=[];fontSize=7;" vertex="1" connectable="0" parent="tE1aHcZddgMQ1IxQSUrm-27">
          <mxGeometry x="-0.1405" y="1" relative="1" as="geometry">
            <mxPoint as="offset" />
          </mxGeometry>
        </mxCell>
        <mxCell id="tE1aHcZddgMQ1IxQSUrm-31" style="edgeStyle=elbowEdgeStyle;rounded=0;orthogonalLoop=1;jettySize=auto;html=1;elbow=vertical;curved=0;" edge="1" parent="1">
          <mxGeometry relative="1" as="geometry">
            <mxPoint x="345" y="309.9980952380952" as="sourcePoint" />
            <mxPoint x="145" y="309.9980952380952" as="targetPoint" />
          </mxGeometry>
        </mxCell>
        <mxCell id="tE1aHcZddgMQ1IxQSUrm-32" value="9. Відправка повідомлення о статусу обраної клітки&lt;br&gt;Передача ходу іншому гравцю" style="edgeLabel;html=1;align=center;verticalAlign=middle;resizable=0;points=[];fontSize=7;" vertex="1" connectable="0" parent="tE1aHcZddgMQ1IxQSUrm-31">
          <mxGeometry x="0.2948" y="-2" relative="1" as="geometry">
            <mxPoint x="135" y="12" as="offset" />
          </mxGeometry>
        </mxCell>
        <mxCell id="tE1aHcZddgMQ1IxQSUrm-40" style="edgeStyle=elbowEdgeStyle;rounded=0;orthogonalLoop=1;jettySize=auto;html=1;elbow=vertical;curved=0;" edge="1" parent="1">
          <mxGeometry relative="1" as="geometry">
            <mxPoint x="355" y="310.0028571428571" as="sourcePoint" />
            <mxPoint x="555" y="310.0028571428571" as="targetPoint" />
          </mxGeometry>
        </mxCell>
      </root>
    </mxGraphModel>
  </diagram>
</mxfile>
